<?xml version="1.0" encoding="UTF-8"?>
<svg width="512" height="512" version="1.1"
 xmlns="http://www.w3.org/2000/svg">
 <defs>
  <linearGradient id="a" x1="-41.26" x2="-2.994" y1="-.883" y2="37.956" gradientTransform="matrix(10.594 0 0 10.436 479.68 51.882)" gradientUnits="userSpaceOnUse">
   <stop stop-color="#f66151" offset="0"/>
   <stop stop-color="#c01c28" offset="1"/>
  </linearGradient>
  <linearGradient id="b" x1="-2.994" x2="-41.26" y1="37.956" y2="-.883" gradientTransform="matrix(10.594 0 0 10.436 490.37 51.882)" gradientUnits="userSpaceOnUse">
   <stop stop-color="#a51d2d" offset="0"/>
   <stop stop-color="#c01c28" offset="1"/>
  </linearGradient>
  <linearGradient id="c" x1="12.006" x2="43.002" y1="12.006" y2="43.002" gradientTransform="matrix(10.667 0 0 10.667 -.0037333 10.665)" gradientUnits="userSpaceOnUse">
   <stop offset="0"/>
   <stop stop-opacity="0" offset=".65343"/>
  </linearGradient>
 </defs>

 <path d="m108.68 53.333c-30.658 0-54.42 24.337-55.331 54.518v350.82h350.02c30.658 0 55.331-24.326 55.331-54.518v-350.82z" fill="url(#a)"/>
 <path d="m458.68 233.55-74.688-74.688-2.625-0.37504c-4.7464-0.83403-8.6171-1.2499-11.625-1.2499-6.8372 0-11.583 1.7074-14.25 5.125-2.2832 2.9261-3.5259 8.0226-3.8542 15.042l-18.667-18.667h-16.75v25.25l-2.375-0.49995c-4.7467-0.83306-8.4583-1.25-11.125-1.25-8.672 0-15.169 2.6238-19.5 7.875-3.0034 3.6469-4.8885 8.9292-5.7709 15.687l-17.583-17.583c-3.9893-3.9893-9.7106-5.9792-17.167-5.9792-3.5172 0-7.5582 1.2782-12.063 3.6875l-2.1875-2.1875h-16.625v7.8334l-23.687-23.687c-5.4293-5.4379-13.708-8.1458-24.833-8.1458-12.928 0-22.042 3.6645-27.375 10.999-5.248 7.2522-7.875 18.413-7.875 33.5 0 15.005 2.627 26.018 7.875 33.021 0.62934 0.83093 1.3057 1.6224 2.0417 2.3541l35.209 35.209h-45.125v14.105l21.021 21.021v43.458l94.604 94.604h159.65c30.658 0 55.333-24.319 55.333-54.521z" fill="url(#c)" opacity=".2"/>
 <path d="m369.75 157.23c-6.8352 0-11.583 1.7074-14.25 5.125-2.6674 3.4176-4 9.6225-4 18.625v2.75h-6.7709v14.25h6.7709v48.271h16.75v-48.271h15.125v-14.25h-15.125v-2.625c0-3.2509 0.41642-5.5413 1.25-6.875 0.8336-1.3336 2.4993-2 5-2 2.5007 0 5.5823 0.0832 9.25 0.25003l0.25003-13.625-2.625-0.37504c-4.7514-0.8335-8.6242-1.25-11.625-1.25zm-53.521 1.4999v25.25l-2.375-0.49995c-4.7514-0.83349-8.4576-1.25-11.125-1.25-8.669 0-15.166 2.6236-19.5 7.875-4.2512 5.1681-6.375 13.455-6.375 24.875 0 11.337 1.7907 19.645 5.375 24.896 3.5843 5.2514 9.9141 7.875 18.999 7.875 4.2512 1e-5 9.29-1.3743 15.125-4.125v2.625h16.625v-87.521zm-152.92 1c-12.921 0-22.041 3.6646-27.375 10.999-5.2514 7.252-7.875 18.413-7.875 33.5 0 15.004 2.6236 26.019 7.875 33.021 5.2514 7.0019 14.371 10.5 27.375 10.5 2.8341 0 4.6664-0.12501 5.5-0.37504l11.25 18.375 15.771-7.375-10.396-16.75c8.7524-6.4184 13.146-18.891 13.146-37.396 0-15.088-2.6861-26.247-8.0208-33.5-5.2514-7.3354-14.33-10.999-27.25-10.999zm0 14.999c6.6685 0 11.249 2.332 13.75 7 2.5007 4.668 3.75 12.164 3.75 22.5s-1.2493 17.686-3.75 22.021c-2.4173 4.3345-6.9982 6.5-13.75 6.5-6.7519 1e-5 -11.374-2.1654-13.875-6.5-2.4173-4.3345-3.625-11.684-3.625-22.021 0-10.337 1.2493-17.833 3.75-22.5 2.5007-4.668 7.0815-7 13.75-7zm79.396 7.5c-4.0845 0-8.8318 1.6241-14.25 4.875v-3.375h-16.625v88.771h16.75v-25.75l1.4999 0.25003c3.1676 0.50016 6.1243 0.74997 8.875 0.74997 10.086 1e-5 17.332-2.332 21.75-7 4.4179-4.7512 6.625-13.184 6.625-25.27s-1.9989-20.624-6-25.625c-4.0011-5.0847-10.206-7.625-18.625-7.625zm61.27 14.5c3.5843 0 7.6654 0.41643 12.25 1.25v32.896l-1.75 0.37504c-3.8344 1.0003-7.499 1.5-10.999 1.5-3.4176 1e-5 -5.8746-1.3743-7.375-4.125-1.5004-2.7507-2.25-7.394-2.25-13.895 0-12.003 3.3731-18 10.125-18zm-64.521 0.49995c7.2521 0 10.875 5.7469 10.875 17.25 0 6.8352-0.91616 11.686-2.75 14.521-1.7505 2.8341-5.0403 4.25-9.875 4.25-2.334 0-5.374-0.24992-9.125-0.74997v-32.771l1.4999-0.62496c3.1676-1.2502 6.2908-1.875 9.375-1.875zm70.708 75.27v80.896h15.479v-80.896zm-182.1 2.3125v14.105h21.021v64.479h15.937v-64.479h20.813v-14.105zm82.042 19.417c-9.5522 0-16.375 2.6638-20.459 7.9792-4.0828 5.2383-6.125 12.636-6.125 22.188 0 20.26 8.8655 30.375 26.583 30.375 17.717 0 26.562-10.115 26.562-30.375 0-9.5522-2.0422-16.949-6.125-22.188-4.0828-5.3153-10.885-7.9792-20.437-7.9792zm61.458 0c-9.5522 0-16.355 2.6638-20.437 7.9792-4.0828 5.2383-6.125 12.636-6.125 22.188 0 20.26 8.8446 30.375 26.562 30.375 17.717 0 26.583-10.115 26.583-30.375 0-9.5522-2.0422-16.949-6.125-22.188-4.0828-5.3153-10.906-7.9792-20.459-7.9792zm88.396 0.10453c-6.5479 0-11.903 1.5916-16.063 4.75-4.1598 3.0814-6.2291 7.6914-6.2291 13.854 0 6.0856 1.4686 10.341 4.3958 12.73 2.9274 2.3882 7.36 4.082 13.292 5.0833 6.0086 1.0014 9.6968 1.8483 11.084 2.5416 1.4637 0.69333 2.1875 1.7656 2.1875 3.2291 0 1.4637-0.67584 2.5839-2.0625 3.3541-1.3096 0.69334-3.8712 1.0417-7.6459 1.0417-3.6976 0-10.323-0.62155-19.875-1.8542l-0.45834 12.938 3.7084 0.68747c7.2412 1.3867 13.395 2.0833 18.479 2.0833 15.484 0 23.229-6.2288 23.229-18.708 0-5.7005-1.3183-9.8328-3.9375-12.375-2.6192-2.5421-7.031-4.3381-13.27-5.4166-6.1628-1.1555-10.022-2.0024-11.563-2.5416-1.4637-0.61621-2.1875-1.6613-2.1875-3.125 0-1.5407 0.52566-2.6609 1.6042-3.3541 1.1555-0.69333 3.6211-1.0417 7.3958-1.0417 3.8517 0 10.552 0.62154 20.105 1.8542l0.22912-12.833-3.8125-0.68747c-7.8575-1.4636-14.059-2.2083-18.604-2.2083zm-149.86 13.062c4.0828 0 6.876 1.3455 8.4166 4.0417 1.6177 2.6962 2.4376 7.0267 2.4376 12.958 0 5.9316-0.81973 10.268-2.4376 13.042-1.5407 2.7732-4.3339 4.1666-8.4166 4.1666-4.0828 0-6.9447-1.3935-8.5626-4.1666-1.5407-2.7732-2.3125-7.11-2.3125-13.042 0-5.9316 0.77184-10.262 2.3125-12.958 1.6177-2.6962 4.4797-4.0417 8.5626-4.0417zm61.458 0c4.0828 0 6.8968 1.3455 8.4375 4.0417 1.6177 2.6962 2.4376 7.0267 2.4376 12.958 0 5.9316-0.81973 10.268-2.4376 13.042-1.5407 2.7732-4.3547 4.1666-8.4375 4.1666s-6.924-1.3935-8.5417-4.1666c-1.5407-2.7732-2.3125-7.11-2.3125-13.042 0-5.9316 0.77184-10.262 2.3125-12.958 1.6177-2.6962 4.4589-4.0417 8.5417-4.0417z" fill="#fff"/>
 <path d="m458.65 393.48c0 30.203-24.673 54.518-55.331 54.518h-350.02v10.666h350.02c30.658 0 55.331-24.326 55.331-54.518z" fill="url(#b)"/>
</svg>
