<?xml version="1.0" encoding="UTF-8"?>
<svg width="128" height="128" version="1.1" viewBox="0 0 33.867 33.867" xmlns="http://www.w3.org/2000/svg">
 <polygon transform="matrix(.10646 0 0 .10646 3.306 6.7347)" points="256 0 231.39 0 222.49 0 35.511 0 0 36.084 0 156.75 0 166.59 0 191.59 24.605 191.59 33.505 191.59 220.49 191.59 256 155.51 256 34.842 256 25.002" fill="#cf000f"/>
 <path transform="matrix(.84434 0 0 .84434 -25.289 -116.79)" d="m50.24 151.87c-0.12238 1.1545-0.5289 3.2572-1.3137 5.3215-0.78565 2.0668-1.9513 4.0952-2.9672 5.5988-1.0142 1.502-1.8837 2.4784-2.5453 3.0416-0.66498 0.56314-1.1246 0.7129-1.425 0.76425-0.29783 0.0513-0.43304 0-0.51349-0.14977-0.08045-0.14977-0.10875-0.40223-0.03937-0.70092 0.06767-0.3021 0.22937-0.65299 0.68808-1.1014 0.463-0.45102 1.2204-1.0013 2.2774-1.5165 1.057-0.51264 2.41-0.98931 3.5217-1.3137 1.1117-0.32607 1.9779-0.50066 2.7361-0.63759 0.75997-0.13779 1.4095-0.23792 2.0454-0.28756 0.63759-0.0513 1.2615-0.0513 1.8708 0 0.60934 0.0496 1.2058 0.14977 1.7211 0.27301 0.51435 0.12581 0.94828 0.27643 1.3274 0.51521 0.37827 0.23706 0.70434 0.56314 0.86607 0.92601 0.16432 0.36373 0.16432 0.76425 0.0283 1.0518-0.13522 0.28756-0.40737 0.46387-0.71804 0.56228-0.31066 0.10008-0.66327 0.12495-1.0835 0-0.42021-0.12494-0.90978-0.39967-1.4232-0.76425-0.5135-0.36201-1.056-0.81132-1.7605-1.5131-0.70434-0.70178-1.5722-1.6552-2.303-2.5803-0.73088-0.92685-1.3291-1.8281-1.7356-2.5914-0.40481-0.76425-0.62218-1.3899-0.79849-2.0172-0.1763-0.62561-0.31152-1.2512-0.36544-1.8144-0.05386-0.56484-0.0283-1.0655 0.02647-1.4635 0.27152-2.0236 2.1547-1.6368 1.8828 0.3971z" fill="#cf000f" stroke="#fff" stroke-linecap="round" stroke-linejoin="round" stroke-miterlimit="10" stroke-width="1.1162" style="paint-order:fill markers stroke"/>
</svg>
