<?xml version="1.0" encoding="UTF-8"?>
<svg width="128" height="128" version="1.1"
 xmlns="http://www.w3.org/2000/svg">
 <defs>
  <linearGradient id="a" x1="-41.26" x2="-2.994" y1="-.883" y2="37.956" gradientTransform="matrix(2.6485 0 0 2.609 119.92 12.97)" gradientUnits="userSpaceOnUse">
   <stop stop-color="#f66151" offset="0"/>
   <stop stop-color="#c01c28" offset="1"/>
  </linearGradient>
  <linearGradient id="b" x1="-2.994" x2="-41.26" y1="37.956" y2="-.883" gradientTransform="matrix(2.6485 0 0 2.609 122.59 12.97)" gradientUnits="userSpaceOnUse">
   <stop stop-color="#a51d2d" offset="0"/>
   <stop stop-color="#c01c28" offset="1"/>
  </linearGradient>
  <linearGradient id="c" x1="12.006" x2="43.002" y1="12.006" y2="43.002" gradientTransform="matrix(2.6668 0 0 2.6668 -.00080832 2.6658)" gradientUnits="userSpaceOnUse">
   <stop offset="0"/>
   <stop stop-opacity="0" offset=".65343"/>
  </linearGradient>
 </defs>

 <path d="m27.17 13.333c-7.6645 0-13.605 6.0842-13.833 13.63v87.705h87.505c7.6645 0 13.833-6.0815 13.833-13.63v-87.705z" fill="url(#a)"/>
 <path d="m114.67 58.387-18.672-18.672-0.65625-0.09376c-1.1866-0.20851-2.1543-0.31248-2.9062-0.31248-1.7093 0-2.8958 0.42685-3.5625 1.2812-0.5708 0.73152-0.88148 2.0056-0.96355 3.7605l-4.6668-4.6668h-4.1875v6.3125l-0.59375-0.12499c-1.1867-0.20826-2.1146-0.3125-2.7812-0.3125-2.168 0-3.7922 0.65595-4.875 1.9688-0.75085 0.91172-1.2221 2.2323-1.4427 3.9218l-4.3958-4.3958c-0.99732-0.99733-2.4276-1.4948-4.2918-1.4948-0.8793 0-1.8896 0.31955-3.0158 0.92188l-0.54688-0.54688h-4.1562v1.9584l-5.9218-5.9218c-1.3573-1.3595-3.427-2.0364-6.2082-2.0364-3.232 0-5.5105 0.91612-6.8438 2.7498-1.312 1.813-1.9688 4.6032-1.9688 8.375 0 3.7512 0.65675 6.5045 1.9688 8.2552 0.15734 0.20773 0.32642 0.4056 0.51042 0.58852l8.8022 8.8022h-11.281v3.5263l5.2552 5.2552v10.864l23.651 23.651h39.912c7.6645 0 13.833-6.0798 13.833-13.63z" fill="url(#c)" opacity=".2"/>
 <path d="m92.438 39.307c-1.7088 0-2.8958 0.42685-3.5625 1.2812-0.66685 0.8544-1 2.4056-1 4.6562v0.6875h-1.6927v3.5625h1.6927v12.068h4.1875v-12.068h3.7812v-3.5625h-3.7812v-0.65625c0-0.81272 0.1041-1.3853 0.3125-1.7188 0.2084-0.3334 0.62482-0.5 1.25-0.5s1.3956 0.0208 2.3125 0.06251l0.06251-3.4062-0.65625-0.09376c-1.1878-0.20838-2.156-0.3125-2.9062-0.3125zm-13.38 0.37498v6.3125l-0.59375-0.12499c-1.1878-0.20837-2.1144-0.3125-2.7812-0.3125-2.1672 0-3.7915 0.6559-4.875 1.9688-1.0628 1.292-1.5938 3.3638-1.5938 6.2188 0 2.8342 0.44768 4.9112 1.3438 6.224 0.89608 1.3128 2.4785 1.9688 4.7498 1.9688 1.0628 3e-6 2.3225-0.34358 3.7812-1.0312v0.65625h4.1562v-21.88zm-38.23 0.25c-3.2302 0-5.5102 0.91615-6.8438 2.7498-1.3128 1.813-1.9688 4.6032-1.9688 8.375 0 3.751 0.6559 6.5048 1.9688 8.2552 1.3128 1.7505 3.5928 2.625 6.8438 2.625 0.70852 0 1.1666-0.03125 1.375-0.09376l2.8125 4.5938 3.9428-1.8438-2.599-4.1875c2.1881-1.6046 3.2865-4.7228 3.2865-9.349 0-3.772-0.67152-6.5618-2.0052-8.375-1.3128-1.8338-3.5825-2.7498-6.8125-2.7498zm0 3.7498c1.6671 0 2.8122 0.583 3.4375 1.75 0.62518 1.167 0.9375 3.041 0.9375 5.625s-0.31232 4.4215-0.9375 5.5052c-0.60432 1.0836-1.7496 1.625-3.4375 1.625-1.688 2e-6 -2.8435-0.54135-3.4688-1.625-0.60432-1.0836-0.90625-2.921-0.90625-5.5052s0.31232-4.4582 0.9375-5.625c0.62518-1.167 1.7704-1.75 3.4375-1.75zm19.849 1.875c-1.0211 0-2.208 0.40602-3.5625 1.2188v-0.84375h-4.1562v22.193h4.1875v-6.4375l0.37498 0.06251c0.7919 0.12504 1.5311 0.18749 2.2188 0.18749 2.5215 2e-6 4.333-0.583 5.4375-1.75 1.1045-1.1878 1.6562-3.296 1.6562-6.3175s-0.49972-5.156-1.5-6.4062c-1.0003-1.2712-2.5515-1.9062-4.6562-1.9062zm15.318 3.625c0.89608 0 1.9164 0.10411 3.0625 0.3125v8.224l-0.4375 0.09376c-0.9586 0.25008-1.8748 0.375-2.7498 0.375-0.8544 2e-6 -1.4686-0.34358-1.8438-1.0312s-0.5625-1.8485-0.5625-3.4738c0-3.0008 0.84328-4.5 2.5312-4.5zm-16.13 0.12499c1.813 0 2.7188 1.4367 2.7188 4.3125 0 1.7088-0.22904 2.9215-0.6875 3.6302-0.43762 0.70852-1.2601 1.0625-2.4688 1.0625-0.5835 0-1.3435-0.06248-2.2812-0.18749v-8.1928l0.37498-0.15624c0.7919-0.31255 1.5727-0.46875 2.3438-0.46875zm17.677 18.818v20.224h3.8698v-20.224zm-45.525 0.57812v3.5263h5.2552v16.12h3.9842v-16.12h5.2032v-3.5263zm20.51 4.8542c-2.388 0-4.0938 0.66595-5.1148 1.9948-1.0207 1.3096-1.5312 3.159-1.5312 5.547 0 5.065 2.2164 7.5938 6.6458 7.5938 4.4292 0 6.6405-2.5288 6.6405-7.5938 0-2.388-0.51055-4.2372-1.5312-5.547-1.0207-1.3288-2.7212-1.9948-5.1092-1.9948zm15.364 0c-2.388 0-4.0888 0.66595-5.1092 1.9948-1.0207 1.3096-1.5312 3.159-1.5312 5.547 0 5.065 2.2112 7.5938 6.6405 7.5938 4.4292 0 6.6458-2.5288 6.6458-7.5938 0-2.388-0.51055-4.2372-1.5312-5.547-1.0207-1.3288-2.7265-1.9948-5.1148-1.9948zm22.099 0.02613c-1.637 0-2.9758 0.3979-4.0158 1.1875-1.04 0.77035-1.5573 1.9228-1.5573 3.4635 0 1.5214 0.36715 2.5852 1.099 3.1825 0.73185 0.59705 1.84 1.0205 3.323 1.2708 1.5022 0.25035 2.4242 0.46208 2.771 0.6354 0.36592 0.17333 0.54688 0.4414 0.54688 0.80728 0 0.36592-0.16896 0.64598-0.51562 0.83852-0.3274 0.17334-0.9678 0.26042-1.9115 0.26042-0.9244 0-2.5808-0.15539-4.9688-0.46355l-0.11458 3.2345 0.9271 0.17187c1.8103 0.34668 3.3488 0.52082 4.6198 0.52082 3.871 0 5.8072-1.5572 5.8072-4.677 0-1.4251-0.32958-2.4582-0.98438-3.0938-0.6548-0.63552-1.7578-1.0845-3.3175-1.3542-1.5407-0.28888-2.5055-0.5006-2.8908-0.6354-0.36592-0.15405-0.54688-0.41532-0.54688-0.78125 0-0.38518 0.13142-0.66523 0.40105-0.83853 0.28888-0.17333 0.90528-0.26042 1.849-0.26042 0.96292 0 2.638 0.15538 5.0262 0.46355l0.05728-3.2082-0.95312-0.17187c-1.9644-0.3659-3.5148-0.55208-4.651-0.55208zm-37.465 3.2655c1.0207 0 1.719 0.33638 2.1042 1.0104 0.40442 0.67405 0.6094 1.7567 0.6094 3.2395 0 1.4829-0.20493 2.567-0.6094 3.2605-0.38518 0.6933-1.0835 1.0416-2.1042 1.0416-1.0207 0-1.7362-0.34838-2.1406-1.0416-0.38518-0.6933-0.57812-1.7775-0.57812-3.2605 0-1.4829 0.19296-2.5655 0.57812-3.2395 0.40442-0.67405 1.1199-1.0104 2.1406-1.0104zm15.364 0c1.0207 0 1.7242 0.33638 2.1094 1.0104 0.40442 0.67405 0.6094 1.7567 0.6094 3.2395 0 1.4829-0.20493 2.567-0.6094 3.2605-0.38518 0.6933-1.0887 1.0416-2.1094 1.0416s-1.731-0.34838-2.1354-1.0416c-0.38518-0.6933-0.57812-1.7775-0.57812-3.2605 0-1.4829 0.19296-2.5655 0.57812-3.2395 0.40442-0.67405 1.1147-1.0104 2.1354-1.0104z" fill="#fff"/>
 <path d="m114.66 98.37c0 7.5508-6.1682 13.63-13.833 13.63h-87.505v2.6665h87.505c7.6645 0 13.833-6.0815 13.833-13.63z" fill="url(#b)"/>

</svg>
