<?xml version="1.0" encoding="UTF-8"?>
<svg width="512" height="512" version="1.1" viewBox="0 0 384 384" xml:space="preserve"
    xmlns="http://www.w3.org/2000/svg">
    <polygon transform="matrix(1.5 0 0 1.5 -4.2638e-6 48.305)" points="256 25.002 256 0 231.39 0 222.49 0 35.511 0 0 36.084 0 156.75 0 166.59 0 191.59 24.605 191.59 33.505 191.59 220.49 191.59 256 155.51 256 34.842" fill="#cf000f"/>
    <path d="m194.78 114.59c-1.4559 13.734-6.2919 38.749-15.628 63.306-9.3463 24.587-23.213 48.717-35.298 66.605-12.065 17.868-22.409 29.484-30.279 36.184-7.9107 6.6992-13.378 8.4808-16.952 9.0917-3.543 0.61087-5.1516 0-6.1086-1.7817-0.95704-1.7817-1.2937-4.7851-0.46834-8.3383 0.80499-3.5939 2.7286-7.7682 8.1856-13.103 5.508-5.3654 14.518-11.912 27.092-18.041 12.574-6.0985 28.67-11.769 41.895-15.628 13.225-3.879 23.529-5.956 32.549-7.5849 9.0408-1.6392 16.768-2.8304 24.333-3.4209 7.5849-0.61085 15.007-0.61085 22.256 0 7.2489 0.59051 14.345 1.7817 20.474 3.2478 6.1188 1.4966 11.281 3.2885 15.791 6.129 4.5 2.8202 8.379 6.6992 10.303 11.016 1.9548 4.327 1.9548 9.0917 0.33666 12.513-1.6086 3.4208-4.8462 5.5182-8.542 6.689-3.6957 1.1905-7.8904 1.4864-12.889 0-4.9989-1.4864-10.823-4.7546-16.931-9.0917-6.1087-4.3066-12.563-9.6517-20.943-18-8.379-8.3485-18.703-19.69-27.397-30.696-8.6947-11.026-15.811-21.747-20.647-30.828-4.8157-9.0917-7.4016-16.534-9.499-23.997-2.0973-7.4424-3.7059-14.885-4.3473-21.584-0.64073-6.7195-0.33666-12.675 0.31494-17.41 3.2301-24.073 25.633-19.472 22.398 4.724z" fill="#cf000f" stroke="#fff" stroke-linecap="round" stroke-linejoin="round" stroke-miterlimit="10" stroke-width="13.279" style="paint-order:fill markers stroke"/>
</svg>
