<?xml version="1.0" encoding="UTF-8"?>
<svg width="512" height="512" version="1.1" viewBox="0 0 384 384" xmlns="http://www.w3.org/2000/svg" xmlns:cc="http://creativecommons.org/ns#" xmlns:dc="http://purl.org/dc/elements/1.1/" xmlns:rdf="http://www.w3.org/1999/02/22-rdf-syntax-ns#">
 <metadata>
  <rdf:RDF>
   <cc:Work rdf:about="">
    <dc:format>image/svg+xml</dc:format>
    <dc:type rdf:resource="http://purl.org/dc/dcmitype/StillImage"/>
   </cc:Work>
  </rdf:RDF>
 </metadata>
 <defs>
  <filter id="filter1186-9" x="-3.36e-5" y="-3.5019e-5" width="1.0001" height="1.0001" color-interpolation-filters="sRGB">
   <feGaussianBlur stdDeviation="0.0037383491"/>
  </filter>
  <filter id="filter1186-9-7" x="-3.36e-5" y="-3.5019e-5" width="1.0001" height="1.0001" color-interpolation-filters="sRGB">
   <feGaussianBlur stdDeviation="0.0037383491"/>
  </filter>
 </defs>
 <style id="current-color-scheme" type="text/css">.ColorScheme-Text {
            color:#232629;
        }</style>
 <style type="text/css">.ColorScheme-Text {
            color:#232629;
        }</style>
 <style type="text/css">.ColorScheme-Text {
            color:#232629;
        }</style>
 <path d="m54.397 40.636h308.79s18.02 0 18.02 17.807v231.5l-51.601 53.422h-308.79s-18.02 0-18.02-17.807v-231.5z" fill="#cf000f" stroke-width="6.3068"/>
 <g transform="matrix(.825 0 0 .33333 691.11 -222.03)"></g>
 <g transform="matrix(.75 0 0 .75 165.66 -679.8)"></g>
 <style type="text/css">.ColorScheme-Text {
            color:#232629;
        }</style>
 <path transform="matrix(.87509 0 0 .87509 23.982 23.982)" d="m68.424 319.18c-3.8036-1.0233-5.4788-2.3951-7.8354-6.4163-3.4412-5.872-2.5776-16.9 1.9952-25.479 2.4029-4.5083 10.689-12.768 18.909-18.849 11.64-8.611 31.145-19.026 43.796-23.387l6.5802-2.2679 4.7786-7.5118c7.1362-11.218 11.224-18.539 17.521-31.375 6.2856-12.815 7.4405-15.519 13.386-31.346l4.0913-10.891-1.7387-4.4496c-4.7564-12.173-8.6192-25.868-11.352-40.245-1.2982-6.8311-1.4292-9.1139-1.0175-17.727 0.75294-15.749 2.7833-22.669 8.3244-28.37 3.7479-3.8563 8.871-6.1636 15.034-6.7709 4.0776-0.4018 5.1964-0.26012 7.7656 0.98336 7.851 3.7999 11.644 7.0706 13.335 11.5 1.0404 2.7242 1.0788 4.299 0.39237 16.077-1.0472 17.967-4.0254 33.208-12.57 64.326l-1.534 5.5867 1.4073 1.5724c0.774 0.86482 3.6431 5.3496 6.3757 9.9662 6.7268 11.364 21.422 30.567 32.249 42.142l4.07 4.3508h13.519c23.396 0 44.373 3.761 57.34 10.281 9.7109 4.8825 19.199 15.449 21.379 23.81 1.3776 5.283 1.1163 13.598-0.52626 16.747-1.6935 3.2464-7.184 9.0241-10.299 10.838-3.4261 1.995-12.573 4.46-16.55 4.46-10.063 0-25.087-7.112-40.977-19.399-7.4657-5.7725-26.174-23.526-29.403-27.902l-1.446-1.9599-6.6533 0.8282c-17.12 2.1311-50.9 9.9923-66.615 15.502l-9.5069 3.3335-6.1749 8.6142c-13.841 19.309-27.636 35.295-36.859 42.714-7.8044 6.2783-20.107 11.774-26.039 11.631-1.0527-0.0253-3.3716-0.43816-5.153-0.91744zm13.331-18.926c4.3612-2.1876 12.463-8.8063 18.088-14.776 4.8101-5.1057 13.071-14.819 13.071-15.37 0-0.59859-8.7091 3.8352-13.292 6.7671-7.4239 4.749-22.288 17.716-23.915 20.862-0.53573 1.036-0.97406 2.6866-0.97406 3.668 0 2.1121 0.76902 1.986 7.0234-1.1511zm221.63-29.299c7.439-1.494 10.179-7.5774 5.9752-13.267-4.3359-5.868-11.293-11.072-18.708-13.995-1.9143-0.75454-8.6268-2.4245-14.917-3.7111-9.3142-1.9052-12.924-2.3342-19.457-2.3123l-8.0212 0.0268 5.7954 5.5549c14.362 13.766 30.604 24.79 40.414 27.433 4.4813 1.207 4.2847 1.201 8.9182 0.27046zm-130.33-40.047c7.2359-1.8291 19.194-4.6519 26.573-6.2729 11.655-2.5601 13.339-3.0918 12.828-4.0481-0.32407-0.60553-4.0096-4.7628-8.1901-9.2385-8.9207-9.5505-13.64-15.565-18.306-23.329-1.866-3.1051-3.5372-5.4062-3.7138-5.1136-0.17658 0.29261-2.0805 4.5206-4.2309 9.3956-4.2259 9.5802-10.877 23.063-16.961 34.381-2.1014 3.9094-3.8206 7.2077-3.8206 7.3296 0 0.66938 3.992-0.11386 15.821-3.1041zm8.0117-100.82c2.4059-8.6021 4.9628-23.937 5.532-33.179 0.3485-5.6579 0.82059-11.273 1.0491-12.479 0.3784-1.9961 0.20268-2.2932-1.9689-3.3287-1.5923-0.75932-3.1604-0.99143-4.7206-0.69873-2.3016 0.43179-2.3606 0.53161-3.9821 6.7378-1.2076 4.6221-1.6469 8.1151-1.65 13.118-5e-3 8.458 1.2811 21.164 2.6919 26.591 1.7972 6.9129 1.9696 7.096 3.0485 3.2386z" fill="#fff" filter="url(#filter1186-9)" stroke-width="0" style="paint-order:normal"/>
 <path transform="matrix(.92487 0 0 .92487 14.425 14.425)" d="m68.424 319.18c-3.8036-1.0233-5.4788-2.3951-7.8354-6.4163-3.4412-5.872-2.5776-16.9 1.9952-25.479 2.4029-4.5083 10.689-12.768 18.909-18.849 11.64-8.611 31.145-19.026 43.796-23.387l6.5802-2.2679 4.7786-7.5118c7.1362-11.218 11.224-18.539 17.521-31.375 6.2856-12.815 7.4405-15.519 13.386-31.346l4.0913-10.891-1.7387-4.4496c-4.7564-12.173-8.6192-25.868-11.352-40.245-1.2982-6.8311-1.4292-9.1139-1.0175-17.727 0.75294-15.749 2.7833-22.669 8.3244-28.37 3.7479-3.8563 8.871-6.1636 15.034-6.7709 4.0776-0.4018 5.1964-0.26012 7.7656 0.98336 7.851 3.7999 11.644 7.0706 13.335 11.5 1.0404 2.7242 1.0788 4.299 0.39237 16.077-1.0472 17.967-4.0254 33.208-12.57 64.326l-1.534 5.5867 1.4073 1.5724c0.774 0.86482 3.6431 5.3496 6.3757 9.9662 6.7268 11.364 21.422 30.567 32.249 42.142l4.07 4.3508h13.519c23.396 0 44.373 3.761 57.34 10.281 9.7109 4.8825 19.199 15.449 21.379 23.81 1.3776 5.283 1.1163 13.598-0.52626 16.747-1.6935 3.2464-7.184 9.0241-10.299 10.838-3.4261 1.995-12.573 4.46-16.55 4.46-10.063 0-25.087-7.112-40.977-19.399-7.4657-5.7725-26.174-23.526-29.403-27.902l-1.446-1.9599-6.6533 0.8282c-17.12 2.1311-50.9 9.9923-66.615 15.502l-9.5069 3.3335-6.1749 8.6142c-13.841 19.309-27.636 35.295-36.859 42.714-7.8044 6.2783-20.107 11.774-26.039 11.631-1.0527-0.0253-3.3716-0.43816-5.153-0.91744zm13.331-18.926c4.3612-2.1876 12.463-8.8063 18.088-14.776 4.8101-5.1057 13.071-14.819 13.071-15.37 0-0.59859-8.7091 3.8352-13.292 6.7671-7.4239 4.749-22.288 17.716-23.915 20.862-0.53573 1.036-0.97406 2.6866-0.97406 3.668 0 2.1121 0.76902 1.986 7.0234-1.1511zm221.63-29.299c7.439-1.494 10.179-7.5774 5.9752-13.267-4.3359-5.868-11.293-11.072-18.708-13.995-1.9143-0.75454-8.6268-2.4245-14.917-3.7111-9.3142-1.9052-12.924-2.3342-19.457-2.3123l-8.0212 0.0268 5.7954 5.5549c14.362 13.766 30.604 24.79 40.414 27.433 4.4813 1.207 4.2847 1.201 8.9182 0.27046zm-130.33-40.047c7.2359-1.8291 19.194-4.6519 26.573-6.2729 11.655-2.5601 13.339-3.0918 12.828-4.0481-0.32407-0.60553-4.0096-4.7628-8.1901-9.2385-8.9207-9.5505-13.64-15.565-18.306-23.329-1.866-3.1051-3.5372-5.4062-3.7138-5.1136-0.17658 0.29261-2.0805 4.5206-4.2309 9.3956-4.2259 9.5802-10.877 23.063-16.961 34.381-2.1014 3.9094-3.8206 7.2077-3.8206 7.3296 0 0.66938 3.992-0.11386 15.821-3.1041zm8.0117-100.82c2.4059-8.6021 4.9628-23.937 5.532-33.179 0.3485-5.6579 0.82059-11.273 1.0491-12.479 0.3784-1.9961 0.20268-2.2932-1.9689-3.3287-1.5923-0.75932-3.1604-0.99143-4.7206-0.69873-2.3016 0.43179-2.3606 0.53161-3.9821 6.7378-1.2076 4.6221-1.6469 8.1151-1.65 13.118-5e-3 8.458 1.2811 21.164 2.6919 26.591 1.7972 6.9129 1.9696 7.096 3.0485 3.2386z" fill="#fff" filter="url(#filter1186-9-7)" stroke-width="0" style="paint-order:normal"/>
</svg>
