<?xml version="1.0" encoding="UTF-8" standalone="no"?>
<svg
   xmlns:osb="http://www.openswatchbook.org/uri/2009/osb"
   xmlns:dc="http://purl.org/dc/elements/1.1/"
   xmlns:cc="http://creativecommons.org/ns#"
   xmlns:rdf="http://www.w3.org/1999/02/22-rdf-syntax-ns#"
   xmlns:svg="http://www.w3.org/2000/svg"
   xmlns="http://www.w3.org/2000/svg"
   xmlns:xlink="http://www.w3.org/1999/xlink"
   xmlns:sodipodi="http://sodipodi.sourceforge.net/DTD/sodipodi-0.dtd"
   xmlns:inkscape="http://www.inkscape.org/namespaces/inkscape"
   sodipodi:docname="qpdftools.svg"
   inkscape:version="1.0 (4035a4fb49, 2020-05-01)"
   id="svg2"
   version="1.1"
   viewBox="0 0 384 384"
   height="512"
   width="512">
  <metadata
     id="metadata20">
    <rdf:RDF>
      <cc:Work
         rdf:about="">
        <dc:format>image/svg+xml</dc:format>
        <dc:type
           rdf:resource="http://purl.org/dc/dcmitype/StillImage" />
        <dc:title></dc:title>
      </cc:Work>
    </rdf:RDF>
  </metadata>
  <defs
     id="defs18">
    <marker
       inkscape:isstock="true"
       style="overflow:visible"
       id="Arrow1Lstart"
       refX="0.0"
       refY="0.0"
       orient="auto"
       inkscape:stockid="Arrow1Lstart">
      <path
         transform="scale(0.8) translate(12.5,0)"
         style="fill-rule:evenodd;stroke:#0000ff;stroke-width:1pt;stroke-opacity:1;fill:#ff0000;fill-opacity:1"
         d="M 0.0,0.0 L 5.0,-5.0 L -12.5,0.0 L 5.0,5.0 L 0.0,0.0 z "
         id="path1223" />
    </marker>
    <linearGradient
       osb:paint="solid"
       id="linearGradient1219">
      <stop
         id="stop1217"
         offset="0"
         style="stop-color:#0000ff;stop-opacity:1;" />
    </linearGradient>
    <linearGradient
       id="linearGradient8290">
      <stop
         style="stop-color:#f31111;stop-opacity:1"
         offset="0"
         id="stop8292" />
      <stop
         style="stop-color:#cb0707;stop-opacity:1"
         offset="1"
         id="stop8294" />
    </linearGradient>
    <linearGradient
       id="linearGradient3938">
      <stop
         style="stop-color:#eb2d2d;stop-opacity:1;"
         offset="0"
         id="stop3940" />
      <stop
         style="stop-color:#df2525;stop-opacity:1;"
         offset="1"
         id="stop3942" />
    </linearGradient>
    <linearGradient
       id="XMLID_74_-8-1"
       gradientUnits="userSpaceOnUse"
       x1="64.477501"
       y1="56.3008"
       x2="78.466103"
       y2="48.0854">
      <stop
         offset="0"
         style="stop-color:#ffffff;stop-opacity:1;"
         id="stop155-3-8" />
      <stop
         offset="1"
         style="stop-color:#e6e6e6;stop-opacity:1;"
         id="stop157-94-6" />
    </linearGradient>
    <radialGradient
       inkscape:collect="always"
       xlink:href="#XMLID_74_-8-1"
       id="radialGradient3867"
       cx="558.35437"
       cy="385.4841"
       fx="558.35437"
       fy="385.4841"
       r="191.6187"
       gradientTransform="matrix(1,0,0,1.0499906,0,-19.270593)"
       gradientUnits="userSpaceOnUse" />
    <linearGradient
       id="SVGID_2_"
       gradientUnits="userSpaceOnUse"
       x1="200.0508"
       y1="185.0742"
       x2="200.0508"
       y2="217.4595">
      <stop
         offset="0"
         style="stop-color:#61B74A"
         id="stop13" />
      <stop
         offset="1"
         style="stop-color:#449934"
         id="stop15" />
    </linearGradient>
    <linearGradient
       y2="217.4595"
       x2="200.0508"
       y1="185.0742"
       x1="200.0508"
       gradientTransform="matrix(13.577628,0,0,13.577628,-2026.1619,-2566.7096)"
       gradientUnits="userSpaceOnUse"
       id="linearGradient3021"
       xlink:href="#SVGID_2_"
       inkscape:collect="always" />
    <linearGradient
       id="linearGradient2460"
       y2="44.984001"
       gradientUnits="userSpaceOnUse"
       x2="19.360001"
       y1="21.030804"
       x1="19.244999">
      <stop
         id="stop3602"
         style="stop-color:#fafafa;stop-opacity:1;"
         offset="0" />
      <stop
         id="stop3604"
         style="stop-color:#f0f0f0;stop-opacity:1;"
         offset="1" />
    </linearGradient>
    <linearGradient
       y2="44.984001"
       x2="19.360001"
       y1="21.030804"
       x1="19.244999"
       gradientTransform="matrix(11.076923,0,0,11.076923,-9.8523013,-20.578025)"
       gradientUnits="userSpaceOnUse"
       id="linearGradient3096"
       xlink:href="#linearGradient2460"
       inkscape:collect="always" />
    <linearGradient
       gradientTransform="matrix(1.0058652,0,0,0.994169,100,0)"
       gradientUnits="userSpaceOnUse"
       id="ButtonShadow-0-1-1-5"
       y2="7.0165396"
       x2="45.447727"
       y1="92.539597"
       x1="45.447727">
      <stop
         offset="0"
         style="stop-color:#000000;stop-opacity:1"
         id="stop3750-8-9-3-6" />
      <stop
         offset="1"
         style="stop-color:#000000;stop-opacity:0.58823532"
         id="stop3752-5-6-4-2" />
    </linearGradient>
    <linearGradient
       y2="251.66064"
       x2="1011.9534"
       y1="476.25983"
       x1="1016.1035"
       gradientTransform="translate(-146.22032,369.08845)"
       gradientUnits="userSpaceOnUse"
       id="linearGradient4082"
       xlink:href="#linearGradient4487"
       inkscape:collect="always" />
    <linearGradient
       id="linearGradient4487">
      <stop
         offset="0"
         style="stop-color:#000000;stop-opacity:1"
         id="stop4489" />
      <stop
         offset="1"
         style="stop-color:#000000;stop-opacity:0"
         id="stop4491" />
    </linearGradient>
    <linearGradient
       id="linearGradient3737">
      <stop
         offset="0"
         style="stop-color:#ffffff;stop-opacity:1"
         id="stop3739" />
      <stop
         offset="1"
         style="stop-color:#ffffff;stop-opacity:0"
         id="stop3741" />
    </linearGradient>
    <linearGradient
       id="linearGradient4046">
      <stop
         offset="0"
         style="stop-color:#000000;stop-opacity:1;"
         id="stop4048" />
      <stop
         offset="1"
         style="stop-color:#ffffff;stop-opacity:0.2"
         id="stop4050" />
    </linearGradient>
    <linearGradient
       id="linearGradient2760">
      <stop
         id="stop2770"
         offset="0"
         style="stop-color:#ffffff;stop-opacity:1;" />
      <stop
         id="stop2764"
         offset="1"
         style="stop-color:#a9a9a9;stop-opacity:1;" />
    </linearGradient>
    <linearGradient
       id="linearGradient4846">
      <stop
         offset="0"
         style="stop-color:#1a1a1a;stop-opacity:1"
         id="stop4848" />
      <stop
         offset="1"
         style="stop-color:#1e1e1e;stop-opacity:1;"
         id="stop4856" />
    </linearGradient>
    <linearGradient
       id="linearGradient4922">
      <stop
         id="stop4924"
         style="stop-color:#1a1a1a;stop-opacity:1"
         offset="0" />
      <stop
         id="stop4926"
         style="stop-color:#636363;stop-opacity:1"
         offset="0.15622118" />
      <stop
         id="stop4928"
         style="stop-color:#b4b4b4;stop-opacity:1"
         offset="0.33151907" />
      <stop
         id="stop4930"
         style="stop-color:#636363;stop-opacity:1"
         offset="0.53579742" />
      <stop
         id="stop4932"
         style="stop-color:#000000;stop-opacity:1"
         offset="1" />
    </linearGradient>
    <linearGradient
       y2="110.85986"
       x2="166.77547"
       y1="152.12039"
       x1="201.33115"
       spreadMethod="reflect"
       gradientTransform="matrix(1.2757694,0,0,1.2757694,-135.89444,2.4500392)"
       gradientUnits="userSpaceOnUse"
       id="linearGradient4884"
       xlink:href="#linearGradient4888"
       inkscape:collect="always" />
    <linearGradient
       id="linearGradient4888">
      <stop
         offset="0"
         style="stop-color:#c0821c;stop-opacity:1;"
         id="stop4892" />
      <stop
         id="stop4894"
         style="stop-color:#e4ae48;stop-opacity:1;"
         offset="1" />
    </linearGradient>
    <linearGradient
       gradientUnits="userSpaceOnUse"
       y2="158.47191"
       x2="258.22205"
       y1="160.82593"
       x1="13.021049"
       id="linearGradient4882"
       xlink:href="#linearGradient4898"
       inkscape:collect="always" />
    <linearGradient
       id="linearGradient4898">
      <stop
         offset="0"
         style="stop-color:#a86f20;stop-opacity:1;"
         id="stop4900" />
      <stop
         offset="1"
         style="stop-color:#c68d31;stop-opacity:1"
         id="stop4902" />
    </linearGradient>
    <linearGradient
       x1="45.447727"
       y1="92.539597"
       x2="45.447727"
       y2="7.0165396"
       id="ButtonShadow"
       gradientUnits="userSpaceOnUse"
       gradientTransform="scale(1.0058652,0.994169)">
      <stop
         id="stop3750"
         style="stop-color:#000000;stop-opacity:1"
         offset="0" />
      <stop
         id="stop3752"
         style="stop-color:#000000;stop-opacity:0.58823532"
         offset="1" />
    </linearGradient>
    <filter
       color-interpolation-filters="sRGB"
       id="filter3174">
      <feGaussianBlur
         stdDeviation="1.71"
         id="feGaussianBlur3176" />
    </filter>
    <linearGradient
       y2="168.28262"
       x2="214.26566"
       y1="11.425488"
       x1="212.86353"
       spreadMethod="reflect"
       gradientTransform="matrix(1.8464564,0,0,1.8464564,-123.73343,86.826257)"
       gradientUnits="userSpaceOnUse"
       id="linearGradient8264"
       xlink:href="#linearGradient2760"
       inkscape:collect="always" />
    <linearGradient
       inkscape:collect="always"
       xlink:href="#linearGradient2460"
       id="linearGradient3157"
       gradientUnits="userSpaceOnUse"
       gradientTransform="matrix(12.102564,0,0,12.102564,-34.468255,-46.187105)"
       x1="18.930269"
       y1="6.2951212"
       x2="19.360001"
       y2="36.643665" />
    <linearGradient
       y2="1"
       x2="1"
       y1="0"
       x1="0"
       id="acyl_gradient"
       xlink:href="#linearGradient4321"
       inkscape:collect="always" />
    <linearGradient
       id="linearGradient4321">
      <stop
         id="stop1"
         offset="0"
         style="stop-color:#ee0c0c;stop-opacity:1;" />
      <stop
         id="stop2"
         offset="1"
         style="stop-color:#7a0404;stop-opacity:1;" />
    </linearGradient>
    <radialGradient
       gradientUnits="userSpaceOnUse"
       gradientTransform="matrix(2.4249551,-0.00787504,0.00770263,2.3718665,-135.71828,-134.64744)"
       r="150"
       fy="98.692879"
       fx="94.710419"
       cy="98.692879"
       cx="94.710419"
       id="radialGradient3928"
       xlink:href="#linearGradient4321"
       inkscape:collect="always" />
    <radialGradient
       r="150"
       fy="98.692879"
       fx="94.710419"
       cy="98.692879"
       cx="94.710419"
       gradientTransform="matrix(2.4249551,-0.00787504,0.00770263,2.3718665,-135.71828,-134.64744)"
       gradientUnits="userSpaceOnUse"
       id="radialGradient3932"
       xlink:href="#linearGradient4321"
       inkscape:collect="always" />
    <radialGradient
       r="150"
       fy="112.57468"
       fx="110.73653"
       cy="112.57468"
       cx="110.73653"
       gradientTransform="matrix(1.6533901,0.0060994,-0.00539655,1.4623231,-50.506611,-35.439162)"
       gradientUnits="userSpaceOnUse"
       id="radialGradient3936"
       xlink:href="#linearGradient3938"
       inkscape:collect="always" />
    <radialGradient
       inkscape:collect="always"
       xlink:href="#linearGradient3938"
       id="radialGradient8259"
       gradientUnits="userSpaceOnUse"
       gradientTransform="matrix(1.6533901,0.0060994,-0.00539655,1.4623231,703.83008,-47.907537)"
       cx="110.73653"
       cy="112.57468"
       fx="110.73653"
       fy="112.57468"
       r="150" />
    <radialGradient
       inkscape:collect="always"
       xlink:href="#linearGradient3938"
       id="radialGradient8273"
       gradientUnits="userSpaceOnUse"
       gradientTransform="matrix(1.6533901,0.0060994,-0.00539655,1.4623231,703.83008,-47.907537)"
       cx="110.73653"
       cy="112.57468"
       fx="110.73653"
       fy="112.57468"
       r="150" />
    <filter
       height="1.00007"
       y="-3.5018689e-05"
       width="1.0000672"
       x="-3.3599543e-05"
       id="filter1186"
       style="color-interpolation-filters:sRGB"
       inkscape:collect="always">
      <feGaussianBlur
         id="feGaussianBlur1188"
         stdDeviation="0.0037383491"
         inkscape:collect="always" />
    </filter>
    <filter
       inkscape:collect="always"
       style="color-interpolation-filters:sRGB"
       id="filter1186-9"
       x="-3.3599543e-05"
       width="1.0000672"
       y="-3.5018689e-05"
       height="1.00007">
      <feGaussianBlur
         inkscape:collect="always"
         stdDeviation="0.0037383491"
         id="feGaussianBlur1188-6" />
    </filter>
    <filter
       height="1.00007"
       y="-3.5018689e-05"
       width="1.0000672"
       x="-3.3599543e-05"
       id="filter1186-9-7"
       style="color-interpolation-filters:sRGB"
       inkscape:collect="always">
      <feGaussianBlur
         id="feGaussianBlur1188-6-8"
         stdDeviation="0.0037383491"
         inkscape:collect="always" />
    </filter>
  </defs>
  <sodipodi:namedview
     inkscape:snap-to-guides="true"
     inkscape:snap-grids="false"
     inkscape:snap-others="true"
     inkscape:snap-nodes="true"
     units="px"
     inkscape:document-rotation="0"
     inkscape:guide-bbox="true"
     showguides="true"
     inkscape:snap-global="false"
     inkscape:bbox-paths="true"
     inkscape:bbox-nodes="true"
     inkscape:snap-bbox-edge-midpoints="true"
     inkscape:snap-bbox-midpoints="true"
     inkscape:object-paths="true"
     inkscape:snap-intersection-paths="true"
     inkscape:snap-smooth-nodes="true"
     inkscape:snap-midpoints="true"
     inkscape:snap-object-midpoints="true"
     inkscape:snap-center="true"
     inkscape:snap-text-baseline="true"
     inkscape:snap-page="true"
     inkscape:snap-bbox="true"
     inkscape:current-layer="svg2"
     inkscape:window-maximized="1"
     inkscape:window-y="0"
     inkscape:window-x="0"
     inkscape:cy="201.96123"
     inkscape:cx="194.3726"
     inkscape:zoom="1"
     showgrid="false"
     id="namedview16"
     inkscape:window-height="709"
     inkscape:window-width="1366"
     inkscape:pageshadow="2"
     inkscape:pageopacity="0"
     guidetolerance="10"
     gridtolerance="10"
     objecttolerance="10"
     borderopacity="1"
     bordercolor="#666666"
     pagecolor="#ffffff">
    <sodipodi:guide
       id="guide101"
       orientation="0,512"
       position="0,384" />
    <sodipodi:guide
       id="guide103"
       orientation="512,0"
       position="384,384" />
    <sodipodi:guide
       id="guide105"
       orientation="0,-512"
       position="384,0" />
    <sodipodi:guide
       id="guide107"
       orientation="-512,0"
       position="0,0" />
  </sodipodi:namedview>
  <style
     type="text/css"
     id="current-color-scheme">
        .ColorScheme-Text {
            color:#232629;
        }
    </style>
  <style
     type="text/css"
     id="current-color-scheme-3">
        .ColorScheme-Text {
            color:#232629;
        }
    </style>
  <style
     type="text/css"
     id="current-color-scheme-6">
        .ColorScheme-Text {
            color:#232629;
        }
    </style>
  <path
     style="fill:#cf000f;stroke-width:6.30682;fill-opacity:1"
     d="M 54.396607,40.636312 H 363.18511 c 0,0 18.01951,0 18.01951,17.807484 V 289.94123 l -51.60123,53.42246 H 20.814888 c 0,0 -18.0195125,0 -18.0195125,-17.80744 V 94.058784 Z"
     id="path4" />
  <g
     id="layer1"
     inkscape:label="Livello 1"
     transform="matrix(0.75,0,0,0.75,619.79681,-819.59719)" />
  <g
     id="g2036"
     transform="matrix(0.825,0,0,0.33333,691.10761,-222.03115)">
    <g
       id="g3712"
       style="opacity:0.4"
       transform="matrix(1.0526,0,0,1.2857,-1.2632,-13.429)" />
  </g>
  <g
     transform="matrix(0.75,0,0,0.75,692.90761,-240.8644)"
     id="g3541" />
  <g
     transform="matrix(0.75,0,0,0.75,692.90761,-240.8644)"
     id="g3536" />
  <g
     id="g4076"
     transform="matrix(0.75,0,0,0.75,165.65732,-679.80181)">
    <g
       transform="translate(-926.66758,684.38448)"
       id="g4038" />
  </g>
  <style
     type="text/css"
     id="current-color-scheme-67">
        .ColorScheme-Text {
            color:#232629;
        }
    </style>
  <path
     transform="matrix(0.87509474,0,0,0.87509474,23.98181,23.98181)"
     id="path26-2"
     d="m 68.423964,319.18341 c -3.80363,-1.0233 -5.47881,-2.39508 -7.83539,-6.41628 -3.44121,-5.87197 -2.57765,-16.89987 1.9952,-25.47943 2.40292,-4.50833 10.68871,-12.76793 18.90858,-18.84879 11.64,-8.61099 31.144746,-19.02637 43.796286,-23.38685 l 6.58018,-2.26792 4.77862,-7.51182 c 7.13619,-11.21783 11.22423,-18.53859 17.52058,-31.37546 6.28558,-12.8149 7.44046,-15.51933 13.38568,-31.34582 l 4.09132,-10.89126 -1.73867,-4.44964 c -4.75642,-12.17275 -8.61921,-25.86755 -11.35159,-40.24497 -1.29823,-6.8311 -1.42924,-9.11391 -1.01746,-17.727268 0.75294,-15.749007 2.78334,-22.668767 8.32439,-28.370087 3.74793,-3.856336 8.87095,-6.163574 15.03413,-6.770879 4.0776,-0.401796 5.19637,-0.260124 7.76556,0.983362 7.85098,3.799894 11.64358,7.070627 13.33531,11.500377 1.0404,2.72424 1.07884,4.29896 0.39237,16.07721 -1.04719,17.967495 -4.02537,33.208145 -12.56986,64.325705 l -1.53404,5.5867 1.40726,1.57237 c 0.774,0.86482 3.64307,5.3496 6.37572,9.9662 6.72684,11.36444 21.42171,30.56689 32.24938,42.1417 l 4.07,4.35085 h 13.51903 c 23.39629,0 44.373,3.76103 57.34029,10.28086 9.7109,4.88254 19.19864,15.44925 21.37881,23.81005 1.37762,5.28305 1.11631,13.59849 -0.52626,16.74727 -1.6935,3.24639 -7.184,9.02413 -10.29943,10.83823 -3.42614,1.99504 -12.57293,4.45995 -16.55001,4.45995 -10.06344,0 -25.08657,-7.11203 -40.97721,-19.39883 -7.46567,-5.77252 -26.17422,-23.52622 -29.40263,-27.90196 l -1.44601,-1.95989 -6.65328,0.8282 c -17.12015,2.1311 -50.90027,9.99232 -66.61472,15.5024 l -9.5069,3.33347 -6.17492,8.61419 c -13.84118,19.30883 -27.6355,35.29463 -36.858536,42.71418 -7.80437,6.27831 -20.1073,11.77393 -26.03874,11.63132 -1.0527,-0.0253 -3.37156,-0.43816 -5.15304,-0.91744 z m 13.33067,-18.92557 c 4.36124,-2.18756 12.46325,-8.80632 18.0878,-14.77646 4.810136,-5.10568 13.070556,-14.81903 13.070556,-15.36954 0,-0.59859 -8.7091,3.83515 -13.292416,6.76706 -7.42389,4.74901 -22.28823,17.71563 -23.91532,20.86209 -0.53573,1.03599 -0.97406,2.68657 -0.97406,3.66796 0,2.11208 0.76902,1.98605 7.02344,-1.15111 z M 303.38204,270.9589 c 7.43898,-1.49396 10.17894,-7.57742 5.9752,-13.26656 -4.33593,-5.86803 -11.29286,-11.07238 -18.70814,-13.99521 -1.9143,-0.75454 -8.62679,-2.42454 -14.91663,-3.71109 -9.31421,-1.90515 -12.92438,-2.33418 -19.45733,-2.31229 l -8.02124,0.0268 5.79545,5.5549 c 14.36171,13.76562 30.60365,24.79047 40.41444,27.43289 4.4813,1.20698 4.28472,1.20101 8.91825,0.27046 z M 173.0523,230.91208 c 7.23588,-1.82914 19.19373,-4.65194 26.57298,-6.27287 11.65469,-2.5601 13.33946,-3.09177 12.82763,-4.04814 -0.32407,-0.60553 -4.00962,-4.76285 -8.19012,-9.23849 -8.9207,-9.55051 -13.64032,-15.56515 -18.30567,-23.32863 -1.86597,-3.1051 -3.53715,-5.40624 -3.71375,-5.11364 -0.17658,0.29261 -2.08048,4.52065 -4.23087,9.39565 -4.22587,9.58017 -10.87702,23.0626 -16.96069,34.38066 -2.10135,3.90936 -3.82063,7.20766 -3.82063,7.32955 0,0.66938 3.99205,-0.11386 15.82112,-3.10409 z m 8.01172,-100.82202 c 2.40592,-8.60206 4.96284,-23.93725 5.53205,-33.178786 0.3485,-5.657929 0.82059,-11.273409 1.04911,-12.478869 0.3784,-1.99611 0.20268,-2.2932 -1.96886,-3.32874 -1.59231,-0.75932 -3.16042,-0.99143 -4.7206,-0.69873 -2.30165,0.43179 -2.36063,0.53161 -3.98207,6.73783 -1.20758,4.62213 -1.64694,8.115089 -1.65003,13.117745 -0.005,8.45795 1.28108,21.16405 2.69194,26.59091 1.79719,6.91291 1.96957,7.09604 3.04846,3.23864 z"
     style="opacity:1;fill:#ffffff;stroke:#ffffff;stroke-width:0;stroke-linecap:round;stroke-linejoin:round;stroke-miterlimit:4;stroke-dasharray:none;stroke-dashoffset:0;stroke-opacity:1;paint-order:normal;filter:url(#filter1186-9)" />
  <path
     style="opacity:1;fill:#ffffff;stroke:#ffffff;stroke-width:0;stroke-linecap:round;stroke-linejoin:round;stroke-miterlimit:4;stroke-dasharray:none;stroke-dashoffset:0;stroke-opacity:1;paint-order:normal;filter:url(#filter1186-9-7)"
     d="m 68.423964,319.18341 c -3.80363,-1.0233 -5.47881,-2.39508 -7.83539,-6.41628 -3.44121,-5.87197 -2.57765,-16.89987 1.9952,-25.47943 2.40292,-4.50833 10.68871,-12.76793 18.90858,-18.84879 11.64,-8.61099 31.144746,-19.02637 43.796286,-23.38685 l 6.58018,-2.26792 4.77862,-7.51182 c 7.13619,-11.21783 11.22423,-18.53859 17.52058,-31.37546 6.28558,-12.8149 7.44046,-15.51933 13.38568,-31.34582 l 4.09132,-10.89126 -1.73867,-4.44964 c -4.75642,-12.17275 -8.61921,-25.86755 -11.35159,-40.24497 -1.29823,-6.8311 -1.42924,-9.11391 -1.01746,-17.727268 0.75294,-15.749007 2.78334,-22.668767 8.32439,-28.370087 3.74793,-3.856336 8.87095,-6.163574 15.03413,-6.770879 4.0776,-0.401796 5.19637,-0.260124 7.76556,0.983362 7.85098,3.799894 11.64358,7.070627 13.33531,11.500377 1.0404,2.72424 1.07884,4.29896 0.39237,16.07721 -1.04719,17.967495 -4.02537,33.208145 -12.56986,64.325705 l -1.53404,5.5867 1.40726,1.57237 c 0.774,0.86482 3.64307,5.3496 6.37572,9.9662 6.72684,11.36444 21.42171,30.56689 32.24938,42.1417 l 4.07,4.35085 h 13.51903 c 23.39629,0 44.373,3.76103 57.34029,10.28086 9.7109,4.88254 19.19864,15.44925 21.37881,23.81005 1.37762,5.28305 1.11631,13.59849 -0.52626,16.74727 -1.6935,3.24639 -7.184,9.02413 -10.29943,10.83823 -3.42614,1.99504 -12.57293,4.45995 -16.55001,4.45995 -10.06344,0 -25.08657,-7.11203 -40.97721,-19.39883 -7.46567,-5.77252 -26.17422,-23.52622 -29.40263,-27.90196 l -1.44601,-1.95989 -6.65328,0.8282 c -17.12015,2.1311 -50.90027,9.99232 -66.61472,15.5024 l -9.5069,3.33347 -6.17492,8.61419 c -13.84118,19.30883 -27.6355,35.29463 -36.858536,42.71418 -7.80437,6.27831 -20.1073,11.77393 -26.03874,11.63132 -1.0527,-0.0253 -3.37156,-0.43816 -5.15304,-0.91744 z m 13.33067,-18.92557 c 4.36124,-2.18756 12.46325,-8.80632 18.0878,-14.77646 4.810136,-5.10568 13.070556,-14.81903 13.070556,-15.36954 0,-0.59859 -8.7091,3.83515 -13.292416,6.76706 -7.42389,4.74901 -22.28823,17.71563 -23.91532,20.86209 -0.53573,1.03599 -0.97406,2.68657 -0.97406,3.66796 0,2.11208 0.76902,1.98605 7.02344,-1.15111 z M 303.38204,270.9589 c 7.43898,-1.49396 10.17894,-7.57742 5.9752,-13.26656 -4.33593,-5.86803 -11.29286,-11.07238 -18.70814,-13.99521 -1.9143,-0.75454 -8.62679,-2.42454 -14.91663,-3.71109 -9.31421,-1.90515 -12.92438,-2.33418 -19.45733,-2.31229 l -8.02124,0.0268 5.79545,5.5549 c 14.36171,13.76562 30.60365,24.79047 40.41444,27.43289 4.4813,1.20698 4.28472,1.20101 8.91825,0.27046 z M 173.0523,230.91208 c 7.23588,-1.82914 19.19373,-4.65194 26.57298,-6.27287 11.65469,-2.5601 13.33946,-3.09177 12.82763,-4.04814 -0.32407,-0.60553 -4.00962,-4.76285 -8.19012,-9.23849 -8.9207,-9.55051 -13.64032,-15.56515 -18.30567,-23.32863 -1.86597,-3.1051 -3.53715,-5.40624 -3.71375,-5.11364 -0.17658,0.29261 -2.08048,4.52065 -4.23087,9.39565 -4.22587,9.58017 -10.87702,23.0626 -16.96069,34.38066 -2.10135,3.90936 -3.82063,7.20766 -3.82063,7.32955 0,0.66938 3.99205,-0.11386 15.82112,-3.10409 z m 8.01172,-100.82202 c 2.40592,-8.60206 4.96284,-23.93725 5.53205,-33.178786 0.3485,-5.657929 0.82059,-11.273409 1.04911,-12.478869 0.3784,-1.99611 0.20268,-2.2932 -1.96886,-3.32874 -1.59231,-0.75932 -3.16042,-0.99143 -4.7206,-0.69873 -2.30165,0.43179 -2.36063,0.53161 -3.98207,6.73783 -1.20758,4.62213 -1.64694,8.115089 -1.65003,13.117745 -0.005,8.45795 1.28108,21.16405 2.69194,26.59091 1.79719,6.91291 1.96957,7.09604 3.04846,3.23864 z"
     id="path26-2-5"
     transform="matrix(0.92487136,0,0,0.92487136,14.424699,14.424699)" />
</svg>
